<svg width="28" height="28" viewBox="0 0 28 28" fill="none" xmlns="http://www.w3.org/2000/svg">
<path d="M14 16.9166L3.79168 27.125C3.40973 27.5069 2.92362 27.6979 2.33334 27.6979C1.74307 27.6979 1.25695 27.5069 0.875009 27.125C0.493065 26.743 0.302094 26.2569 0.302094 25.6666C0.302094 25.0764 0.493065 24.5903 0.875009 24.2083L11.0833 14L0.875009 3.79165C0.493065 3.4097 0.302094 2.92359 0.302094 2.33331C0.302094 1.74303 0.493065 1.25692 0.875009 0.874979C1.25695 0.493034 1.74307 0.302063 2.33334 0.302063C2.92362 0.302063 3.40973 0.493034 3.79168 0.874979L14 11.0833L24.2083 0.874979C24.5903 0.493034 25.0764 0.302063 25.6667 0.302063C26.257 0.302063 26.7431 0.493034 27.125 0.874979C27.507 1.25692 27.6979 1.74303 27.6979 2.33331C27.6979 2.92359 27.507 3.4097 27.125 3.79165L16.9167 14L27.125 24.2083C27.507 24.5903 27.6979 25.0764 27.6979 25.6666C27.6979 26.2569 27.507 26.743 27.125 27.125C26.7431 27.5069 26.257 27.6979 25.6667 27.6979C25.0764 27.6979 24.5903 27.5069 24.2083 27.125L14 16.9166Z" fill="#201747"/>
</svg>
